<?xml version="1.0" encoding="utf-8"?>
<!-- Generator: Adobe Illustrator 15.0.0, SVG Export Plug-In . SVG Version: 6.00 Build 0)  -->
<!DOCTYPE svg PUBLIC "-//W3C//DTD SVG 1.1//EN" "http://www.w3.org/Graphics/SVG/1.1/DTD/svg11.dtd">
<svg version="1.1" xmlns="http://www.w3.org/2000/svg" xmlns:xlink="http://www.w3.org/1999/xlink" x="0px" y="0px" width="576px"
	 height="576px" viewBox="0 0 576 576" enable-background="new 0 0 576 576" xml:space="preserve">
<g id="Layer_9" display="none">
</g>
<g id="Layer_8_copy_2">
	<g id="circle_10_">
		<path fill="#BB7E3B" d="M107.704,118.118c89.828-99.375,243.213-107.115,342.591-17.284
			c99.376,89.83,107.113,243.213,17.284,342.591c-89.832,99.377-243.215,107.115-342.593,17.284
			C25.611,370.879,17.871,217.496,107.704,118.118z"/>
		<path d="M107.371,117.815c21.339-23.579,47.099-43.207,75.753-57.27c7.154-3.529,14.492-6.7,21.969-9.517
			c7.47-2.835,15.086-5.304,22.813-7.396c15.452-4.18,31.341-6.878,47.371-7.971c16.027-1.057,32.198-0.609,48.163,1.579
			c7.984,1.076,15.92,2.542,23.769,4.399c7.838,1.896,15.593,4.16,23.207,6.836c30.477,10.69,58.662,27.732,82.41,49.599
			c11.823,10.885,22.604,23.007,32.04,36.025c9.429,13.036,17.549,26.991,24.204,41.589c6.643,14.602,11.896,29.813,15.591,45.381
			c3.746,15.555,5.965,31.455,6.687,47.411c1.489,31.911-3.183,64.074-13.727,94.242c-2.632,7.544-5.638,14.959-9.004,22.21
			c-3.339,7.263-7.026,14.372-11.065,21.281c-8.077,13.826-17.515,26.841-28.156,38.879c-21.178,24.029-47.157,44.096-76.185,58.13
			c-28.99,14.108-60.881,22.268-93.136,24.027c-32.257,1.791-64.893-2.79-95.442-13.518c-15.286-5.329-30.01-12.274-43.901-20.593
			c-13.899-8.33-26.959-17.964-38.986-28.888c-23.863-21.76-43.664-48.237-57.204-77.599c-3.399-7.332-6.434-14.829-9.092-22.453
			c-2.621-7.638-4.859-15.4-6.714-23.247c-3.744-15.688-5.779-31.748-6.3-47.809c-0.507-16.065,0.557-32.15,3.172-47.95
			c1.307-7.899,3-15.729,5.072-23.448c2.053-7.724,4.472-15.345,7.266-22.819c5.62-14.936,12.532-29.373,20.876-42.939
			C87.102,142.39,96.65,129.568,107.371,117.815z M108.037,118.421c-10.568,11.808-20.04,24.603-28.073,38.25
			c-7.978,13.673-14.682,28.094-19.707,43.077c-2.53,7.482-4.694,15.083-6.466,22.77c-1.753,7.689-3.125,15.459-4.114,23.27
			c-1.978,15.621-2.418,31.407-1.328,47.057c1.082,15.653,3.751,31.151,7.738,46.262c2.01,7.553,4.392,15.001,7.127,22.31
			c2.697,7.323,5.754,14.509,9.157,21.523c6.831,14.015,14.944,27.395,24.299,39.848c9.366,12.46,19.922,23.945,31.556,34.384
			c11.535,10.364,24.091,19.75,37.436,27.735c13.347,8.003,27.483,14.674,42.114,19.988c29.282,10.6,60.698,15.33,91.871,13.9
			c31.177-1.419,62.077-8.97,90.468-22.101c14.195-6.564,27.764-14.521,40.46-23.715c12.695-9.209,24.471-19.669,35.186-31.215
			c21.292-23.064,38.307-50.355,48.979-80.067c10.782-29.663,15.423-61.553,13.691-93.071c-0.881-15.759-3.367-31.416-7.352-46.66
			c-4.033-15.231-9.536-30.061-16.498-44.151c-13.887-28.223-33.375-53.451-56.815-74.216C436.13,93.216,423.4,83.99,410.025,75.961
			C396.616,67.96,382.422,61.3,367.74,55.99c-7.345-2.647-14.812-4.967-22.383-6.895c-7.562-1.967-15.224-3.567-22.95-4.787
			c-15.455-2.404-31.155-3.462-46.843-2.921c-31.356,1.01-62.699,8.081-91.451,21.244c-14.405,6.51-28.076,14.646-40.875,23.966
			C130.457,95.956,118.675,106.667,108.037,118.421z"/>
	</g>
</g>
<g id="Layer_8_copy">
	
		<circle id="circle_14_" fill="#BB7E3B" stroke="#000000" stroke-width="2.2536" stroke-miterlimit="10" cx="287.641" cy="280.772" r="231.805"/>
</g>
<g id="Layer_7">
	<circle cx="287.641" cy="280.771" r="178.333"/>
</g>
<g id="Layer_3">
	<g id="dog_outline_1_">
		<path fill="#BB7E3B" d="M332.714,444.643c0,0-16.831-23.762-28.217-34.158c-11.387-10.396-12.377-27.723-12.872-36.634
			s-7.426-17.822-7.426-17.822s-54.755,39.247-70.792,30.693c-7.426-3.961-8.91-6.931-8.91-6.931s-4.456,0.99-7.426-1.485
			c-2.971-2.476-4.457-8.416,1.484-14.356s4.456-7.921,5.941-8.911c1.484-0.99,7.426,1.485,7.426,1.485s8.415-8.415,16.336-18.316
			s-9.901,14.851-36.634,10.396s-27.228-8.91-27.228-8.91s-14.852-6.436-18.813-14.852c-3.96-8.416-5.939-10.396,7.922-21.288
			c13.861-10.891,16.505-14.49,55.939-33.168c9.406-4.455,16.832-16.831,18.813-21.781c1.98-4.951,3.96-16.832,23.268-25.743
			c19.307-8.911,25.247-9.901,25.742-19.308c0.495-9.405,1.485-31.188,1.485-40.594s-2.971-19.307,1.979-18.812
			c4.951,0.495,6.932,4.95,11.882,14.356s5.446,18.316,4.456,15.842c-0.99-2.476,2.97-28.713,3.465-39.109
			c0.495-10.396,6.436-18.316,8.91-15.841c2.477,2.475,8.416,22.772,21.287,41.583c12.872,18.813,11.883,37.129,23.764,56.436
			c11.881,19.308,5.939,17.822,18.811,25.743c12.872,7.921,48.516,34.159,54.456,39.604s28.782,28.92,28.782,28.92s-9.5,50-42,85.75
			c-10.443,11.487-46.5,39-74.9,49.686C334.008,449.238,332.714,444.643,332.714,444.643z"/>
		<path fill="#BB7E3B" d="M332.617,444.701c-5.088-6.984-10.37-13.835-15.904-20.466c-2.775-3.31-5.62-6.563-8.617-9.66
			c-1.498-1.563-3.048-3.015-4.656-4.493c-1.584-1.526-2.989-3.223-4.219-5.04c-2.465-3.636-4.207-7.715-5.412-11.91
			c-1.212-4.2-1.918-8.521-2.347-12.849c-0.216-2.161-0.355-4.341-0.483-6.485c-0.137-2.094-0.628-4.157-1.316-6.158
			c-1.398-3.988-3.524-7.787-6.034-11.167l0.993,0.145c-6.169,4.392-12.473,8.546-18.9,12.529
			c-6.429,3.977-13.007,7.727-19.791,11.105c-3.395,1.683-6.847,3.266-10.387,4.66c-3.541,1.386-7.169,2.613-10.957,3.362
			c-1.893,0.369-3.83,0.614-5.809,0.583c-1.966-0.038-4.029-0.354-5.887-1.356c-1.682-0.896-3.344-1.891-4.917-3.028
			c-0.787-0.57-1.553-1.18-2.282-1.853c-0.363-0.337-0.718-0.689-1.058-1.069c-0.349-0.407-0.642-0.728-0.986-1.335l1.056,0.503
			c-1.96,0.356-3.869,0.312-5.787-0.313c-0.939-0.314-1.865-0.831-2.617-1.492c-0.787-0.697-1.385-1.506-1.842-2.403
			c-0.913-1.79-1.154-3.869-0.813-5.798c0.333-1.94,1.203-3.716,2.31-5.244c0.556-0.767,1.17-1.481,1.826-2.145
			c0.626-0.63,1.209-1.244,1.772-1.899c1.116-1.302,2.114-2.684,2.719-4.18c0.154-0.378,0.278-0.758,0.424-1.199
			c0.146-0.413,0.333-1.048,0.897-1.576c0.155-0.135,0.224-0.203,0.466-0.343c0.035-0.029,0.338-0.169,0.528-0.217
			c0.347-0.095,0.632-0.106,0.914-0.116c0.55-0.002,1.04,0.062,1.517,0.146c1.889,0.366,3.572,0.971,5.292,1.655l-1.098,0.217
			c5.73-5.823,11.234-11.933,16.362-18.305l0.979-1.204l0.489-0.596l0.232-0.286l0.046-0.06c-0.001,0.01,0.048-0.082-0.04,0.074
			c0.143-0.435-0.776,1.321,1.166,1.334c0.136-0.044,0.238-0.118,0.215-0.103c0.036-0.025,0.024-0.018,0.024-0.018l-0.048,0.04
			c-0.742,0.653-1.563,1.363-2.371,2.01c-1.631,1.311-3.335,2.528-5.1,3.649c-3.531,2.239-7.317,4.099-11.297,5.432
			c-3.976,1.336-8.15,2.131-12.356,2.246c-2.102,0.06-4.208-0.041-6.292-0.308c-2.1-0.281-4.091-0.677-6.132-1.053
			c-4.055-0.78-8.097-1.661-12.085-2.813c-1.993-0.582-3.974-1.227-5.913-2.04c-0.969-0.408-1.928-0.86-2.858-1.411
			c-0.464-0.279-0.922-0.581-1.361-0.945c-0.221-0.183-0.436-0.383-0.642-0.618c-0.103-0.117-0.203-0.245-0.299-0.395
			c-0.048-0.073-0.095-0.155-0.139-0.247c-0.048-0.12-0.082-0.137-0.133-0.421l0.442,0.598c-3.006-1.375-5.855-2.956-8.607-4.749
			c-2.733-1.804-5.366-3.819-7.601-6.293c-1.107-1.24-2.114-2.604-2.846-4.145c-0.681-1.473-1.404-2.914-2.032-4.454
			c-0.612-1.519-1.144-3.252-0.866-5.039c0.266-1.781,1.225-3.288,2.258-4.578c2.125-2.578,4.657-4.651,7.18-6.702l7.639-6.018
			c2.547-2.007,5.134-3.979,7.808-5.834c2.672-1.854,5.43-3.582,8.233-5.222c11.245-6.503,23.005-12.025,34.679-17.603
			c2.831-1.466,5.342-3.534,7.59-5.822c2.244-2.302,4.238-4.85,6.029-7.524c1.765-2.684,3.424-5.488,4.563-8.463
			c1.04-3.037,2.109-6.176,3.768-9.009c3.246-5.736,8.331-10.218,13.929-13.528c2.796-1.691,5.78-3.031,8.726-4.368l8.855-4.001
			c2.925-1.364,5.888-2.708,8.502-4.507c1.294-0.906,2.47-1.97,3.287-3.27c0.827-1.295,1.258-2.809,1.443-4.366
			c0.252-3.153,0.334-6.446,0.493-9.664l0.392-9.709c0.236-6.472,0.461-12.947,0.552-19.414c0.014-1.612,0.042-3.239-0.02-4.826
			c-0.061-1.6-0.187-3.203-0.334-4.811c-0.146-1.608-0.316-3.22-0.439-4.852c-0.106-1.635-0.23-3.277,0.032-5.019
			c0.157-0.847,0.389-1.845,1.276-2.594c0.896-0.761,2.186-0.617,2.9-0.478c1.792,0.28,3.413,1.3,4.576,2.563
			c1.189,1.255,2.085,2.667,2.932,4.075c0.837,1.416,1.608,2.851,2.37,4.284l2.272,4.307c0.753,1.472,1.426,2.973,2.024,4.509
			c1.182,3.078,2.131,6.229,2.585,9.563c0.049,0.424,0.093,0.843,0.097,1.312c-0.001,0.12-0.001,0.239-0.015,0.381
			c-0.007,0.074-0.013,0.144-0.033,0.242c-0.024,0.094-0.025,0.197-0.172,0.445c-0.019,0.484-1.493,0.489-1.42,0.174
			c-0.169-0.164-0.205-0.247-0.258-0.329c-0.097-0.179-0.116-0.22-0.199-0.436c-0.187-0.594-0.168-1.007-0.196-1.447
			c-0.012-0.432-0.007-0.849,0.004-1.265c0.05-1.657,0.184-3.278,0.322-4.901c0.287-3.241,0.64-6.466,0.994-9.688
			c0.702-6.441,1.483-12.879,1.993-19.301c0.145-1.6,0.146-3.182,0.338-4.885c0.189-1.664,0.511-3.313,0.976-4.925
			c0.465-1.612,1.063-3.19,1.83-4.703c0.782-1.506,1.684-2.972,3.022-4.233c0.343-0.311,0.716-0.609,1.163-0.862
			c0.446-0.247,0.978-0.474,1.643-0.488c0.665-0.03,1.407,0.297,1.837,0.753c0.4,0.415,0.649,0.836,0.867,1.204
			c0.854,1.517,1.475,3.002,2.135,4.499l3.834,8.924c2.599,5.909,5.403,11.717,8.573,17.315c1.585,2.799,3.256,5.547,5.033,8.221
			c0.881,1.325,1.829,2.671,2.7,4.077c0.874,1.394,1.693,2.822,2.469,4.273c3.112,5.807,5.351,12.011,7.291,18.213
			c1.949,6.206,3.691,12.425,6.033,18.39c1.163,2.983,2.479,5.897,3.959,8.722c0.743,1.411,1.529,2.799,2.36,4.158
			c0.845,1.377,1.691,2.793,2.502,4.204c1.628,2.83,3.158,5.737,4.539,8.702c0.696,1.475,1.342,2.978,2.052,4.347
			c0.706,1.377,1.544,2.524,2.664,3.537c2.262,2.026,5.067,3.66,7.815,5.391c2.76,1.75,5.451,3.568,8.131,5.403
			c5.354,3.677,10.638,7.439,15.895,11.24c5.254,3.803,10.478,7.647,15.662,11.548c2.592,1.952,5.174,3.917,7.736,5.915
			c2.536,2.01,5.163,3.999,7.522,6.325c4.692,4.517,9.207,9.157,13.755,13.78l13.56,13.938l0.372,0.383l-0.106,0.502
			c-1.713,8.057-4.066,15.864-6.757,23.587c-2.709,7.707-5.827,15.271-9.383,22.626c-7.118,14.689-15.974,28.643-27.149,40.625
			c-2.858,2.963-5.921,5.661-9.037,8.299c-3.12,2.63-6.316,5.163-9.559,7.634c-6.486,4.938-13.172,9.611-20.045,13.989
			c-6.87,4.38-13.917,8.493-21.193,12.163c-3.64,1.831-7.338,3.548-11.112,5.086c-0.943,0.384-1.891,0.758-2.845,1.115
			c-0.938,0.366-1.935,0.726-2.976,0.807c-1.031,0.095-2.128-0.084-3.013-0.667C333.585,446.561,332.947,445.688,332.617,444.701z
			 M332.822,444.612c0.315,0.926,0.949,1.774,1.781,2.297c0.834,0.533,1.859,0.689,2.842,0.587c0.995-0.091,1.935-0.44,2.881-0.824
			c0.946-0.369,1.886-0.754,2.821-1.15c3.741-1.582,7.405-3.344,11.01-5.218c7.205-3.757,14.177-7.951,20.967-12.41
			c6.783-4.472,13.409-9.183,19.841-14.142c3.212-2.483,6.376-5.029,9.458-7.666c3.075-2.639,6.106-5.352,8.878-8.267
			c10.962-11.926,19.652-25.831,26.604-40.449c3.473-7.322,6.513-14.85,9.145-22.514c2.608-7.659,4.898-15.485,6.514-23.361
			l0.266,0.885c-9.083-9.226-18.178-18.487-27.441-27.48c-2.26-2.228-4.815-4.159-7.357-6.167c-2.548-1.983-5.125-3.938-7.712-5.881
			c-5.175-3.884-10.394-7.716-15.642-11.504c-5.249-3.786-10.527-7.534-15.86-11.188c-2.667-1.822-5.349-3.628-8.063-5.345
			c-2.722-1.72-5.575-3.341-8.159-5.638c-1.296-1.155-2.396-2.666-3.16-4.176c-0.782-1.507-1.414-2.984-2.105-4.438
			c-1.357-2.907-2.852-5.738-4.457-8.521c-0.806-1.397-1.623-2.762-2.474-4.145c-0.86-1.403-1.674-2.835-2.442-4.29
			c-1.537-2.909-2.868-5.921-4.053-8.976c-2.377-6.114-4.113-12.4-6.028-18.56c-1.905-6.16-4.073-12.21-7.071-17.849
			c-0.748-1.409-1.537-2.795-2.38-4.147c-0.83-1.353-1.744-2.659-2.653-4.034c-1.801-2.728-3.489-5.525-5.089-8.37
			c-3.198-5.689-6.016-11.576-8.615-17.536l-3.811-8.948c-0.639-1.468-1.274-2.978-2.011-4.286c-0.19-0.33-0.369-0.605-0.532-0.775
			c-0.136-0.125-0.195-0.147-0.346-0.152c-0.318-0.017-0.944,0.333-1.439,0.802c-1.034,0.958-1.887,2.28-2.591,3.642
			c-0.703,1.374-1.264,2.837-1.701,4.336c-0.436,1.5-0.75,3.039-0.937,4.592c-0.186,1.517-0.207,3.182-0.364,4.808
			c-0.561,6.494-1.387,12.919-2.133,19.354c-0.375,3.216-0.749,6.431-1.056,9.642c-0.149,1.603-0.291,3.212-0.349,4.793
			c-0.014,0.394-0.021,0.786-0.013,1.165c0.011,0.364,0.032,0.775,0.102,0.955c-0.01-0.028,0.051,0.118,0.055,0.115
			c-0.002,0.005,0.018,0.009-0.079-0.086c0.139-0.231-1.197-0.223-1.169,0.157c-0.096,0.161-0.068,0.165-0.075,0.16
			c0.001-0.001,0.005-0.032,0.008-0.06c0.007-0.06,0.009-0.144,0.01-0.226c0-0.342-0.034-0.729-0.077-1.11
			c-0.396-3.096-1.299-6.204-2.42-9.174c-0.567-1.487-1.212-2.95-1.925-4.367l-2.233-4.306c-0.749-1.432-1.503-2.856-2.306-4.235
			c-0.808-1.37-1.66-2.716-2.698-3.821c-1.022-1.116-2.295-1.904-3.723-2.146c-0.157-0.037-0.38-0.058-0.575-0.085
			c-0.136-0.013-0.315-0.025-0.455-0.011c-0.298,0.02-0.53,0.106-0.725,0.258c-0.394,0.298-0.646,0.979-0.766,1.698
			c-0.238,1.468-0.147,3.088-0.049,4.679c0.109,1.601,0.269,3.212,0.404,4.831c0.137,1.619,0.254,3.248,0.305,4.886
			c0.052,1.651,0.011,3.266-0.014,4.892c-0.134,6.491-0.404,12.966-0.69,19.442l-0.462,9.711l-0.251,4.854
			c-0.106,1.627-0.129,3.213-0.32,4.887c-0.207,1.649-0.69,3.33-1.625,4.77c-0.926,1.445-2.218,2.583-3.576,3.521
			c-2.748,1.858-5.734,3.176-8.682,4.527l-8.879,3.955c-2.955,1.333-5.899,2.646-8.658,4.304
			c-5.524,3.249-10.504,7.622-13.686,13.211c-1.63,2.772-2.674,5.804-3.738,8.885c-1.19,3.079-2.867,5.884-4.663,8.602
			c-1.818,2.703-3.846,5.271-6.127,7.608c-2.277,2.333-4.822,4.453-7.75,5.983c-11.684,5.634-23.395,11.187-34.571,17.703
			c-2.783,1.642-5.514,3.366-8.158,5.216c-2.649,1.842-5.194,3.83-7.719,5.855l-7.576,6.08c-2.479,2.049-4.971,4.144-6.951,6.596
			c-0.966,1.226-1.781,2.583-1.978,4.04c-0.218,1.455,0.23,2.955,0.832,4.408c0.608,1.456,1.35,2.907,2.042,4.369
			c0.672,1.384,1.617,2.649,2.676,3.813c2.136,2.324,4.708,4.264,7.39,5.998c2.689,1.723,5.538,3.267,8.436,4.562l0.365,0.163
			l0.077,0.436c-0.027-0.158-0.012-0.056-0.004-0.06l0.052,0.088c0.043,0.066,0.103,0.142,0.169,0.217
			c0.135,0.15,0.297,0.302,0.474,0.445c0.354,0.289,0.759,0.553,1.178,0.799c0.843,0.49,1.752,0.911,2.68,1.293
			c1.86,0.762,3.802,1.376,5.76,1.929c3.923,1.097,7.934,1.935,11.96,2.673c2.005,0.353,4.054,0.736,6.033,0.983
			c1.996,0.236,4.01,0.315,6.018,0.241c4.017-0.155,8.004-0.925,11.819-2.216c3.817-1.29,7.464-3.091,10.869-5.265
			c1.702-1.088,3.346-2.27,4.916-3.539c0.796-0.641,1.528-1.278,2.328-1.985l0.101-0.083l0.102-0.074
			c-0.011,0.005,0.106-0.076,0.256-0.127c1.965,0.005,1.037,1.788,1.171,1.365c-0.118,0.212-0.109,0.171-0.148,0.232l-0.072,0.093
			l-0.253,0.313l-0.487,0.597l-0.963,1.192c-5.167,6.455-10.669,12.598-16.456,18.512l-0.461,0.472l-0.638-0.254
			c-1.58-0.628-3.269-1.216-4.876-1.518c-0.763-0.162-1.7-0.144-1.693,0.016c-0.212,0.098-0.471,1.19-0.833,2.053
			c-0.742,1.807-1.877,3.336-3.073,4.724c-0.598,0.69-1.242,1.364-1.871,1.992c-0.597,0.599-1.146,1.235-1.637,1.907
			c-0.979,1.341-1.706,2.847-1.981,4.421c-0.282,1.566-0.086,3.2,0.615,4.59c0.343,0.688,0.827,1.33,1.37,1.814
			c0.584,0.515,1.239,0.882,1.982,1.139c1.461,0.505,3.225,0.552,4.752,0.273l0.704-0.128l0.352,0.631
			c0.12,0.214,0.434,0.624,0.704,0.926c0.288,0.323,0.601,0.638,0.928,0.942c0.654,0.609,1.364,1.179,2.102,1.717
			c1.48,1.077,3.057,2.031,4.699,2.913c1.475,0.808,3.247,1.113,5.033,1.151c1.795,0.035,3.621-0.185,5.428-0.53
			c3.619-0.702,7.173-1.885,10.652-3.234c3.482-1.357,6.897-2.909,10.265-4.563c6.735-3.313,13.27-7.05,19.707-10.939
			c6.426-3.907,12.757-8.004,18.913-12.309l0.589-0.411l0.405,0.556c2.609,3.579,4.723,7.438,6.158,11.625
			c0.699,2.09,1.202,4.275,1.329,6.503c0.112,2.173,0.231,4.311,0.427,6.455c0.388,4.278,1.047,8.535,2.2,12.659
			c1.154,4.116,2.798,8.111,5.139,11.68c1.168,1.781,2.514,3.452,4.022,4.948c1.555,1.47,3.141,2.999,4.613,4.58
			c2.974,3.162,5.778,6.465,8.512,9.821c5.453,6.727,10.64,13.656,15.634,20.722l0.009,0.013L332.822,444.612z"/>
	</g>
	<path display="none" fill="#FFFFFF" stroke="#FFFFFF" stroke-miterlimit="10" d="M-142.5,152.834c0,0,2.333,6-0.333,9.333
		s-4.333,2.499-6.167,1.833s-8.5-6.333-4.667-5.833s8.333,4.501,8.5,5.167s2.333-1.001,2.833-3.334S-142.5,152.834-142.5,152.834z"
		/>
	<path display="none" fill="#FFFFFF" stroke="#FFFFFF" stroke-miterlimit="10" d="M-68.333,85.333c0.417-0.333,5,1.5,3.167,3.167
		s-2.862,1.569-3.333,1.333C-69.5,89.333-70.649,87.188-68.333,85.333z"/>
</g>
<g id="Layer_4">
	<path fill-rule="evenodd" clip-rule="evenodd" d="M367.296,434.682c0.834-0.875,0.922-1.368,1.25-2.75
		c0.545-0.095-0.613-1.641,2.519-3.96c-0.355-1.788-1.427-2.687-3.036-3.373c2.679-1.594,5.635-3.359,3.711-3.71
		c0.089-1.936,1.607-2.44,2.361-3.711c-1.561-1.324,0.623-3.75,2.023-3.373c0.102-0.889-0.467-1.106-1.35-1.012
		c0.455-1.682-0.402-2.096-1.35-1.012c-0.749-0.263-1.314-0.709-2.36-0.675c0.662-1.009-2.813-1.615-3.036-0.675
		c-0.688-0.473,0.332-1.162-0.337-2.023c0.794-0.008,0.516-0.403,0.337-1.35c0.08-1.08-2.387-6.862-3.035-5.06
		c-0.458-0.778-0.97-1.504-1.012-2.698c0.449-0.562,1.91-0.112,2.361-0.675c-0.205-0.808-0.486-1.538-0.338-2.698
		c0.705,0.739,1.268,0.695,1.687-0.337c0.928,0.302,1.017-2.71-0.337-3.373c0.024,0.525,4.299-0.803,3.373-3.036
		c0.593-0.484,4.782-2.638,4.722-5.396c1.086-0.074,1.427,0.597,2.698,0.337c-0.834-2.119-0.645-2.954-3.71-2.698
		c-0.89,2.78-3.278,2.002-4.722,4.048c1.785,0.127,0.059,0.602-0.338,2.023c-0.207-0.468-1.299-0.051-1.35-0.675
		c-1.27,0.458-1.184,1.523-1.35,2.361c-0.84-0.672-2.197,1.856-3.709,1.35c-0.569,2.917-2.768,4.204-4.049,6.408
		c1.152-0.145,1.477,0.792,2.699,1.35c-0.449,0.676-1.498,0.752-2.361,1.012c0.566,1.804-1.011,1.463-1.012,2.698
		c-0.232,0.907,0.697,0.652,1.012,1.013c-0.607,0.967-0.425,2.898-0.675,4.047c-0.562,0-1.113,1.9-0.675,2.699
		c-0.564,1.073-0.719-1.041-2.023-0.338c-0.711,0.863-0.096,3.583-0.338,3.036c0.855,1.317-0.938,5.195-0.337,5.396
		c-0.163,1.073-0.837,1.586,0,2.023c-1.043,1.286-0.72,2.609-2.698,3.373c0.582-0.903,0.563-1.306-1.687-1.687
		s-6.712,1.158-6.746,3.373c-1.312-0.171-2.761,1.265-3.373,0.675c-0.34-1.015-0.45-2.361-1.012-2.361
		c0.3-1.161,0.435-2.488,1.687-2.698c0.096-1.026-1.08-1.312-0.338-2.023c1.104,1.15,2.791-1.104,3.036-2.024
		c2.78,0.082,2.414-2.982,3.373-4.722c-1.189-1.622-4.532-7.178-4.722-5.396c-1.39,0.159-3.604-1.101-5.734-1.013
		c0.822-1.426,0.883-3.613,2.023-4.722c-0.665-0.005-2.299-0.145-3.035,0.675c-0.344-0.22-0.35-0.776-1.012-0.675
		c0.206-0.292-1.535-1.838-2.699-2.024c0.004-0.67,0.148-2.488-1.35-2.36c0.546-1.081-0.07-3.706-1.349-3.036
		c-0.979-0.644-1.782-3.323-0.337-3.71c-0.295-0.83-1.494-0.756-1.35-2.024c1.058-0.939-0.242-3.782-1.687-4.047
		c0.983-1.378,2.948-1.774,3.036-4.048c-1.748,0.328-1.797,0.796-3.373,0.337c-0.777-2.259-3.717-2.354-5.061-4.048
		c1.485,0.136,0.313-2.386,2.024-2.023c0.127-1.543-1.077-1.754-2.024-1.35c-0.713-1.277,0.131-2.106,0-3.71
		c-1.065-0.694-2.426-1.298-3.373-0.337c0.498-1.711-1.454-2.087-0.674-3.036c1.034-0.848,1.775,1.125,2.698-0.337
		c-1.144-1.779-4.22-1.628-4.385-4.385c3.306-3.166-1.044-4.142-2.361-6.409c-0.485,0.188-0.823,0.526-1.012,1.012
		c0.796,0.891-1.955,2.768-4.048,2.361c1.703,0.462,2.412,2.989,1.35,3.036c2.063,1.379,2.202,2.771,4.047,4.047
		c-1.328,1.106-2.926-0.058-4.722,0.675c0.56-1.079-1.428-2.664-2.361-1.687c-0.509-0.293-0.892-2.594-0.675-4.385
		c0.689-0.242-1.318-0.915-2.361-2.361c-1.1-0.089-0.975,1.05-1.686,1.35c0.022,1.508,0.771,0.43,1.35,1.012
		c-1.207,1.543-4.829,1.23-4.723-0.337c-0.58,1.115-0.618,3.956-1.012,4.722c-0.563,0-1.125,0-1.688,0
		c-1.964-5.793-5.62-9.896-11.131-12.143c-16.54,8.401-34.832,28.619-54.98,32.718c-4.016,0.817-6.988,0.983-10.451,1.216
		c-2.783-0.222-8.219-1.281-9.111-5.938c0.009-0.328,0.049-1.375,1.799-4.219c1.834-3.037,3.59-5.337,3.75-8
		c1.643,0.887,3.313,0.563,4.688-0.188c1.826-3.458,2.934-5.905,4.604-9.519c3.043,0.345,3.222-2.175,4.386-3.71
		c2.779,1.056,4.715-0.643,5.396-2.699c2.662,0.706,5.842-0.564,6.746-2.698c-0.313-1.263-2.709-0.439-4.048-0.675
		c2.515-3.467,2.602-7.06,5.396-9.106c-0.138-2.949,1.505-4.117,2.024-6.409c-1.361,0.002-2.217,2.264-2.024,2.698
		c-1.712,0.537-2.368,2.129-3.036,3.711c-0.758,0.261-2.162,0.635-1.349,1.349c0.276,1.288-0.718,1.307-1.349,1.687
		c-0.574,0.124-1.848,0.852-2.361,1.687c-0.865,0.206-1.365,0.581-1.615,1.373c-1.418,0.916-1.061,1.427-2.096,2.675
		c-1.279,0.033-3.688,1.418-4.154,2.325c-0.107,1.124-0.758,0.437-2.254,1.385s-1.256-0.318-1.35-1.012
		c2.873-5.941,8.369-11.756,11.469-18.552c-9.026,4.885-19.125,13.703-33.056,14.842c-4.278,0.35-8.839,0.372-12.817,0
		c-9.457-0.884-20.514-7.851-22.451-10.601c-7.608-2.511-14.941-6.649-18.363-13.348c0.305-0.588,0.868-1.317,0.338-1.35
		c1.02-0.194,1.369-0.731,2.361-0.337c1.923-1.752,3.447-4.421,4.047-5.734c0.922,0.305,2.057-1.204,2.699-1.349
		c-1.51-0.915,3.8-0.708,3.71-3.711c1.214,0.213,4.341-0.6,4.722-2.023c0.684,0.564,5.85,0.168,5.734-2.361
		c1.571,0.094,7.362-1.965,7.084-1.012c1.052-1.472,1.946-1.351,4.047-2.023c-0.962-0.906-1.775-1.594-2.697-0.676
		c-0.746-0.041-4.227,2.814-7.422,1.012c0.236-1,0.406-1.664,0-2.023c1.775-0.811,3.619-1.553,4.723-3.035
		c0.623,0.08,2.148-1.516,3.036-1.35c0.604,0.043,2.087-0.921,3.71-1.35c0.591-1.193-0.225-0.828-0.338-2.023
		c2.065,0.824,2.245-1.655,3.373-2.361c0.638,0.037,0.689,0.291,1.013-0.337c0.946,0.405,2.15,0.194,2.024-1.349
		c1.278-0.259,3.025-0.422,2.36-1.688c1.363,1.227,3.993,1.551,4.385-0.674c1.87,0.393,6.699,0.578,6.071-1.35
		c1.379,0.767,2.979-1.155,5.061-0.338c0.938-0.186,0.943-1.304,1.349-2.023c2.632,0.496,3.223-1.049,4.048-2.361
		c0.695,0.092,0.08,1.494,1.012,1.35c0.501-1.097,2.264-2.316,2.361-2.361c0.648-0.296,1.393-0.402,2.698-0.337
		c0.538-0.474,0.861-1.162,1.012-2.024c1.522,0.062,1.956-0.967,2.698-1.686c0.501,0.146,1.633,1.045,2.699,1.349
		c2.02-3.284,2.148-7.022,0-8.433c1.301-0.506,1.133-4.252,1.349-4.723c0.571,0.016,0.838-0.527,2.024-0.674
		c-0.319-1.78,0.746-2.177,1.349-3.036c-0.727-1.548,3.479-7.702,1.349-8.77c-0.138-0.813,0.617-0.733,0.338-1.687
		c1.508,1.129,0.973-1.243,1.012-3.035c0.85,0.656,2.363,1.33,3.035,0.337c-0.668-0.638-0.163-1.594,0-2.361
		c1.285,0.746,1.498-0.169,1.688-1.349c1.039-0.253,0.41,1.162,1.686,0.674c0.628-0.609,1.236-1.237,1.013-2.698
		c0.953-0.278,0.874,0.476,1.687,0.337c-0.977,2.33,1.531,3.027,3.373,2.361c-0.055,1.074-0.968,2.307-1.687,1.687
		c0.582,0.204-0.026,1.601,0.675,1.687c-1.199,0.07-1.991,2.773-3.373,3.711c1.148,0.324,2.104-0.133,5.398,2.074
		c0.438,0.375,1.281,1.188,1.781,1.375c0.254-1.152,2.246-1.438,2.188-1.625c0.929,0.42,1.279,2.139,1.344,2.219
		c2.156-0.831,0.891,0.285,2.443,1.016c1.431-0.445,0.344-0.573,0.307-1.578c0.443,0.119,0.581-0.486,1.063-0.406
		c0.789-2.326-2.001-2.629-2.381-4.762c1.332-0.432,0.816,0.983,1.687,1.012c0.577,0.016,0.874-0.25,1.012-0.674
		c0.253-1.039-1.163-0.411-0.675-1.687c1.057-0.174,0.576,0.11,2.076,0.423c1.789,1.566,2.506,1.292,4.67,1.938
		c0.633-4.286-4.531-0.805-4.385-4.722c0.652,0.36,1.465,1.284,1.684,1.284c0.398-0.389,0.857,0.021,1.689,0.065
		c0.189-1.917-1.31-1.397-2.023-1.687c0.064-0.383,0.338-0.188,0.337,0c0.901-2.231-4.577-3.477-6.071-2.023
		c0.624-1.819-2.295-1.321-4.385-1.35c0.088-1.102-1.049-0.975-1.35-1.687c0.618-1.128,1.531,0.229,1.687,0.675
		c1.952-1.549,2.774-2.158,4.048-4.385c0.499,0.175,0.85,0.498,1.35,0.674c-0.238-1.694-0.211-1.568-0.338-3.373
		c1.268,0.797,2.139-0.854,1.687-0.674c0.56-0.222,1.637,0.684,1.349-0.676c2.51,0.752-0.451,2.339,2.396,2.752
		c1.313,0.063,1.25-1.406,0.64-2.076c0.632-0.643,0.398-0.995,2.024-1.35c0,0.449,1.656,4.957,5.555,4.77
		c0.281,0.094,0.938-0.031,0.969-0.375c2.464,0.459,1.359,0.197,2.246-0.684c0.363,1.322,1.83,1.543,2.361,2.697
		c1.176-1.661,2.217,4.689,5.059,3.711c-1.257,1.217-0.143,2.403,1.013,3.035c1.386-1.297-0.669-1.92,1.012-2.698
		c-0.642-0.707-2.36-1.687-2.36-1.687l0.857-0.719l0.491-0.631c0,0,0.87,0.705,1.012,1.35c1.271,0.26,1.612-0.411,2.698-0.337
		c-1.128-2.357-4.324-2.646-5.059-5.397c0.934-0.471,1.778,2.034,3.373,2.024c0.174-1.304-1.013-2.361-1.013-2.361l1.403-0.804
		l0.875,0.063c0,0-0.493,1.225,1.095,0.741c-2.143,1.937,3.1,1.367,3.373,3.036c-0.392-0.283-0.904-0.445-1.687-0.338
		c-0.701,0.087-0.675,1.687-0.675,1.687s0.997,0.425,2.222,0.437c0.188-0.125,0.688-0.297,0.703-1
		c1.359,0.166,1.798-0.111,1.798-0.111s1.561,3.471,1.012,4.723c-0.748,0.186-0.466-0.018-0.763,0.42
		c-0.136,1.02,1.42,1.824,3.461,0.93c0.045,2.826,2.702,3.414,5.06,4.722c1.194-0.037-0.717-1.115,0.337-1.012
		c0.971,0.38,1.228,1.472,3.036,1.012c-0.926-0.743-1.484-2.06-1.687-2.36c-1.078-1.607-6.383-3.354-7.42-4.723
		c-0.159-0.209,0.669-0.701,0.674-0.675c-0.316-1.588-2.74-2.907-3.035-5.397c-0.115-0.965,0.291-4.053,0.674-4.385
		c-0.381-0.406-0.963-0.611-0.674-1.686c0.795-0.496,0.627-0.713,1.686-0.338c-0.466-1.514-0.105-1.506,0.676-2.361
		c-0.997-0.42-0.646-2.186-2.024-1.349c1.436-1.661,0.081-3.833-1.012-5.397c0.337,0,0.675,0,1.012,0
		c0.329-1.678-0.466-3.936-1.278-4.074c0.256-0.969,1.766-3.463,2.188-2.313c1.926-5.479-0.11-5.41-2-10.875
		c0.328,0.01,0.004-1.551,0.079-1.289c0.564-0.447,1.13-0.895,2.36-0.675c-0.354,1.255,0.678,0.276,0.889,0.964
		c0.039,0.146,0.578,0.5,0.799,0.385c1.283-0.496,0.066,1.508,1.349,1.012c-0.487,0.524,0.399,0.842-0.163,1.291
		c0.676,1.166,0.4,0.834,1.512,0.733c-0.771,0.214,0.051,3.146-0.699,2.392c0.096,3.779-0.361,1.963,1.712,3.006
		c-0.081,0.593-0.149,0.369-0.274,0.494c-0.906,0.422-0.57,0.559,0.274,0.518c-0.724,3.742,2.953,2.6,6.071,4.047
		c0.501-0.398,1.508-0.291,1.35-1.35c0.979,1.129,0.875-0.033,2.361,0c0.061-0.735,0.208-2.978,1.375-2.795
		c1.135-0.229,2.344-0.425,0.648,0.098c-0.746-5.038,3.242-5.445,3.212-4.914c1.982-0.422,1.774-1.424,2.859-3.856
		c0.421,1.081,1.7,0.526,1.687-0.675c-0.147-0.5,0.367-0.689-0.213-0.822c0.813-0.291,0.95-0.135,2.236,0.148
		c0.056-1.067-0.896-1.128-0.674-2.361c0.545-0.096-0.473-0.877,0-2.699c0.65,0.137,2.549,2.33,3.373,3.036
		c-1.225,1.615,0.282,3.784,2.023,4.386c-1.127,2.45,1.025,3.1,1.012,5.396c-1.729,0.882-3.463-0.383-3.711,1.686
		c-1.091,0.418-0.258-1.091-1.349-0.674c-1.711,0.608-1.845,3.97-2.024,5.06c-0.3-0.149-0.603-0.296-0.674-0.675
		c-1.709,2.227-0.68,7.19-2.361,9.444c-3.288-2.374-3.592-3.671-6.746-5.06c0.17,0.75-0.032,2.874,1.35,3.711
		c-0.309,1.473-0.982,2.059-0.338,3.71c0.45,0,0.9,0,1.35,0c-1.025,1.124,0.392,1.852,0.675,2.698
		c0.704-0.664,1.062-1.041,1.28-1.088c-0.031-0.203,0.953-1.432,1.906-1.703c0.516,0.484,2.875,0.906,2.672,1.006
		c0.281,0.01,0.453,1.225,0.078,1.166c0.276,0.961,0.559,0.982,1.484,1.294c-0.456,1.487,0.896,2.899,0.337,3.373
		c0.694,1.104,2.7,0.897,4.048,1.349c-0.771-0.803,0.916-2.472-0.613-2.516c0.305-0.595-1.711-1.231-1.748-1.869
		c0.834-1.963,3.628-1.215,2.023-4.385c1.362,0.266,1.355-1.218,1.35-1.35c-0.006-0.131,0.15-0.77,1.012-1.349
		c-0.446-0.649,0.248-1.357-0.338-2.361c2.627-0.297,2.532-3.315,5.397-3.373c0.028-0.479-0.337-1.012-0.337-1.012
		s1.324-4.384,2.698-5.733c0.45,0.561,1.911,0.112,2.36,0.674c-0.218-2.686-4.114-2.896-2.36-5.06
		c-1.951-1.048-0.701-3.274-1.687-5.06c-4.482,1.085-5.533-4.604-5.06-7.758c1.448-0.324-0.585-0.176,0.511-0.146
		c-0.094,0.125,0.375,0.219,0.164,0.146c-1.021-1.32,1.223-2.574,0-2.698c0.055-0.396,0.615-0.284,1.012-0.337
		c0.406-1.42-0.545-1.479-0.675-2.361c2.265-1.994,0.159-5.441,0.249-7.438c-0.75-1.469-0.442-1.539-0.924-1.67
		c-0.201-0.643-0.826-1.518-0.92-1.643c0.477-3.512-0.371-2.801-1.778-4.429c1.118-1.658,0.433-5.054-1.222-5.009
		c-0.191-1.608-0.598-2.148-0.531-2.625c-0.287-0.5-0.1-1.238-0.938-1.188c0.547-1.115-2.006-1.57-1.02-3.322
		c-0.301,0.15-0.409-2.869-0.48-2.49c-0.239-4.068-4.5-10.969-3.625-14.219c0.166-1.066-1.279-0.281-0.954-1.505
		c0.544-0.095,0.054-2.326,0.485-2.308c-0.066-3.176-1.594-4.969-0.485-4.438c2.526,5.123,5.741,11.37,6.409,14.841
		c0.146,0.501,0.432-0.133,1.012,0c-0.031,0.921,0.596-0.072,0.033,0.598c0.287,0.063,0.285,0.621,0.304,0.415
		c1.389,3.12,4.718,6.554,6.071,11.131c5.586,6.915,11.092,18.158,14.166,28.671c2.271,7.766,3.666,15.973,7.084,22.936
		c4.353,8.869,10.43,21.231,17.877,27.322c3.635,2.973,8.025,5.063,11.806,7.758c13.084,9.324,25.65,18.668,38.452,29.346
		c-20.895-9.869-3.792,2.137-2.479,2.047c-0.587,1.593,4.084,4.803,5.084,5.584c0.627-0.291-0.996-4.497,0.431-4.934
		c1.548,1.924,6.67,4.941,8.77,8.434c-0.442-0.434-5.091-2.35-5.534-1.918c0.965,1.172,10.22,12.561,11.584,13.334
		c0.383-0.064-3.838-9.057-4.025-9.055c2.585,0.453,5.181,3.811,7.083,6.07c11.177,8.725,3.886,9.807,17.608,15.984
		c0,0-1.61,21.427-16,48c-6.574,12.141-17.804,23.873-29.25,37.75C388.604,426.782,367.296,434.682,367.296,434.682z
		 M243.564,254.599c0.091,1.146-0.261,2.734,0.337,3.373c1.273,0.149,1.584-0.665,2.361-1.013
		C246.698,254.412,245.153,253.367,243.564,254.599z M248.624,257.297c0.464-0.015,0.74,0.158,1.012,0.338
		c-0.279-0.954,0.475-0.875,0.338-1.688c-0.338,0-0.676,0-1.013,0C249.036,256.586,248.581,256.691,248.624,257.297z
		 M234.12,278.885c1.962-0.09,1.981-0.879,3.373-2.024c0.402,0.629,0.706,3.091,1.686,2.024c-0.455-0.332,1.33-1.392,2.361-1.688
		c-0.007-1.527-0.701-2.135,0-3.373c0.476,1.324,1.425,2.174,3.036,2.361c-0.331-2.926,1.304-3.342,3.373-2.361
		c0.085-0.983,0.119-1.117,0-0.674c0.45,0,0.899,0,1.349,0c0.02-0.707-0.35-0.697,0-1.012c1.594-1.436,3.818-1.365,4.385-4.385
		c-0.645-0.143-1.451-0.123-1.349-1.013c2.171,0.372,0.843-2.755,3.373-2.023c-0.663-1.763-0.747-2.841,0.337-4.048
		c-0.907-1.55-3.812-5.018-5.396-2.698c0.412,0.038,0.799,0.101,0.675,0.675c-1.044-0.488-3.396,1.563-3.317,2.16
		c-1.688,1.459-4.738,1.61-5.084,2.541c-0.824-0.854,0.6,2.756-0.706,2.382c-0.104,1.229,0.054,2.194,0.337,3.036
		c-1.585,0.077-3.656,0.491-4.047,0c0,0-0.516-0.066-0.338-0.338c-1.193,0.113-2.574,1-3.373,1.687
		c-0.162,1.063,1.035,0.764,0.676,2.024c-0.49,0.184-1.744-0.395-1.688,0.337c0.785,0.649,0.461,1.064,1.688,1.687
		c-0.189,0.486-0.527,0.822-1.013,1.012c-0.286-0.5-0.849-0.725-1.687-0.674c0.088,1.395-0.4,1.356-1.35,1.012
		c0,0.449,0,0.898,0,1.349c0.77-0.095,1.269,0.081,1.35,0.675c0.032,0.529-0.045,1.17,0.675,1.012 M353.188,279.896
		c2.612-3.535,1.999-8.281,2.36-12.48c-3.041,2.467-4.818,6.199-7.082,9.444c-0.613-1.614-1.228,0.482-2.699,0l0.338-1.012
		c0.146-1.159-0.134-1.891-0.338-2.698c1.125,0.321,0.845-3.335,2.361-3.711c0.251-1.038-0.926-0.648-0.675-1.686
		c-3.124,0.949-5.437,4.424-4.722,8.095c-1.06-0.374-0.892-0.158-1.688,0.337c-1.717,1.434,0.246,3.619,0,4.385
		c-2.47,0.33-3.042,2.564-2.023,4.723c-0.49,0.185-0.741,1.533-1.012,2.361c0.635,0.602,1.562,0.912,2.023,1.687
		c-1.363,0.723-0.252,2.044,0.576,2.716c-1,0.406-0.271,4.244-0.576,5.379c0.992,0.613,0.094,2.64-0.337,3.373
		c1.663,0.426,0.775-1.215,2.226-1.002c0.485,0.188,0.123,1.107,0.313,1.594c-0.123,1.854-0.25,0.412,0.094,2.156
		c0.486,0.746,0.468,1.113,0.656,1.875c-0.28,1.96,0.407,3.885,0.76,5.834c0.939-2.336,2.029,0.48,2.361,1.012
		c0.439-2.161,0.438-3.287,0.674-5.396c-1.658,0.186-2.107-0.23-2.361-1.35c0.785-2.037,1.972-1.178,2.699-2.023
		c0-0.787,0-1.574,0-2.361c-0.449-0.339-1.256-0.319-1.35-1.012c2.117-0.495,2.002-2.116,3.154,1.984
		c1.014-2.089,0.938-3.063,1.905-2.66c0.063,0.535,0.446,2.067-0.337,4.049c0.815,0.176,2.122,0.769,2.698-0.338
		c-1.622-1.277-0.767-3.145-0.829-3.457c0.445-0.004,2.885-5.934,0.829-4.976c0.405-1.506,0.624-3.198,1.687-4.048
		c-0.556-2.066,0.374-3.521,0.674-3.373c-0.077-1.117,1.803-6.383,2.186-7.447c-0.596-0.303-1.82-1.462-2.522-1.66
		c0.571,3.676-1.071,6.191-3.571,6.316c0.24,1.814-1.93,2.124-2.838,2.791c0.276-1.973,0.821-3.677,2.024-4.722 M297.532,276.86
		c-0.543-2.155-2.615-2.78-5.059-3.036c0.041,0.845,0.643,1.057-0.338,1.35c-0.807-0.542-1.588-1.109-3.035-1.012
		c-0.37,1.731-1.762-1.607-1.35-3.035c-0.436-0.465-1.465-0.334-2.361-0.338c0.061,0.736-0.275,1.073-1.012,1.012
		c-0.367-0.555-2.008-1.561-2.699-0.674c0.787,0.099,0.787,0.912,0,1.012c-1.434-0.254-2.669,1.266-3.035,1.349
		c-1.111-0.125-2.028-2.694-2.698-2.698c-0.036,2.213-2.11,2.388-3.373,3.373c-1.065,0.166-0.125-1.674-1.349-1.35
		c-0.901,0.844-2.502,0.84-1.35,2.023c-1.486-0.136-1.082,1.617-3.036,1.013c0.253,1.378-0.719,1.53-1.349,2.024
		c2.637,0.708,0.768,2.604,1.012,4.722c0.821,0.19,1.734,0.288,1.687,1.349c-1.173,0.551-3.263-0.193-4.673-0.637
		c0.611-0.637-0.023-1.03-1.625-1.781c-0.561,0.676-0.342,0.613-1.461,0.732c-1.492,0.404-0.413-1.39-1.012-1.013
		c-1.434,0.354-2.1,1.875-3.373,2.024c0.008,0.795-1.963,2.646-3.035,2.698c-0.086,1.323,1.22,1.253,1.012,2.698
		c-1.586,0.1-3.664-0.291-4.047,1.012c2.559,2.125,4.697,2.696,8.095,3.711c-1.368,0.366,0.331,1.377,0.337,2.361
		c3.428-1.539,2.781,0.457,5.453,0.463c-0.958,1.289-0.34,1.564-0.73,2.91c0.705,0.193,0.963,0.836,2.023,0.674
		c1.026-0.595,3.148,0.338,3.711,0.338c-0.361-1.261,0.996-1.703,1.184-1.859c0.156-1.063-0.094-1-0.172-1.177
		c-0.77,0.095-1.268-0.081-1.35-0.675c0.929-0.195,1.409-0.84,2.361-1.012c1.325,1.931,4.289-0.242,5.396,2.023
		c0.139,0.813-0.615,0.733-0.337,1.688c4.296,0.271,3.052,4.003,7.083,5.396c-1.658,2.146,2.176,4.855,3.373,4.385
		c0.3,0.984,0.431,1.164-0.337,1.687c1.017,1.345,2.791,1.931,4.385,2.698c0.637-1.354,1.877-0.1,3.036-0.675
		c0,0.337,0,0.675,0,1.013c1.819-0.499,4.874-1.336,6.07,0.337c-0.557,0.005-2.729,0.249-3.373,1.687
		c0.67,0.861-0.35,1.551,0.338,2.023c0.432,0.352,0.713,0.508,1.35,0.338c0.504-0.794,2.555,0.644,2.698,1.349
		c-0.481-0.132-0.569-0.404-1.013,0c-0.095,2.457-0.783,4.362,1.688,4.723c1.231-0.639-0.299-1.941,1.012-2.361
		c0.856,0.25,3.711,0.487,4.723,2.361c3.162-0.209,5.047-0.054,7.42-1.35c0.563-0.67-0.03-0.429,0-1.349
		c1.925-0.661,3.068-2.104,4.048-3.711c0.456,0.106,0.644,0.48,1.349,0.338c0.344-1.006,1.634-1.065,2.024-2.024
		c-0.927-0.728,0.335-1.549-0.337-2.36c0.769,0.094,0.084-2.281,0.674-2.361c2.025-0.111,3.182-1.092,4.048-2.361
		c-1.124-0.983,0.446-4.889,2.361-5.06c0.195-1.095-0.229-1.569-0.337-2.361c1.473,0.461,2.115-1.975,2.023-3.373
		c-3.053-0.613-0.446-2.647-0.338-4.722c-0.838-0.439-1.399,0.989-1.686,0c0.672-1.762,1.732-2.354,2.697-4.385
		c-1.331-0.433-0.977-0.039-1.848-0.01c-0.768-1.172-0.533-1.231,0.162-2.352c-0.234-0.666-2.019-2.548-2.024-3.373
		c1.749-1.162,1.237-2.361,0.675-2.361c-0.053,0.396-1.922-0.012-2.281-0.57c-0.227-2.588,2.908-0.152,2.956-2.465
		c-1.685-0.213-2.704-2.156-2.024-3.373c-0.558-0.792-1.967-0.73-3.373-0.676c0.389-0.398,0.383-1.191,0.338-2.023
		c-1.719,1.092-2.563,3.06-4.723,3.711c0.049-0.398,0.602-0.766,0-1.012c-1.982,1.635-3.354,2.193-6.071,3.373
		c-0.38-3.34-3.999-0.376-6.409-1.688c0.1-0.207,0.84-1.299,0-1.35c-1.827,1.23-4.836,1.267-6.746,0.676 M329.949,318.349
		c0.536,0.926,1.14,3.039,0.347,3.146c-0.762-0.589-1.736-0.069-2.033-1.122c-0.488,0.86,1.045,2.784-0.842,2.247
		c0.184,1.277,3.223,1.296,3.842,2.138c0.058-0.504-0.121-1.244,0.338-1.349c0.587,0.025,1.159,1.876,1.012,3.035
		c-1.598,0.508-2.251,0.169-3.711,0c-0.283,1.29,1.855,2.79,2.023,4.723c0.559-1.03,1.926-0.458,1.688,0.337
		c1.986,0.413,1.277-1.87,2.698-2.023c0.907,0.441,1.623,1.075,2.023,2.023c0.664-0.797-0.094-3.017,0.675-3.71
		c0.386,1.076,1.061,1.862,2.023,2.361c0.07-3.214-1.404-6.316-2.698-7.084c-0.019-0.58,2.175-0.487,2.698,0
		c0.15-0.663,0.951-0.514,0.639-1.514c-0.156-0.094-0.615-0.599-0.976-1.858c-1.224-0.325-2.196,0.05-3.036,0
		c-2.229,1.212-1.156-4.085-1.012-6.071c-2.551-0.689-3.149,0.654-6.071,0.337c-0.112,1.911-1.832,2.43-1.651,4.048
		c0.34,0.545,0.946,0.52,1.684,0.045 M263.128,331.503c5.01-1.004,4.727-11.903-3.036-9.106c-0.7,0.086-0.092,1.481-0.675,1.687
		c-1.58-0.345-1.918,0.555-2.697,1.012C256.937,329.151,259.569,332.216,263.128,331.503z M251.659,330.829
		c0.572,3.212-0.869,6.028-0.337,8.095c1.514,0.765,2.005-0.961,3.71-2.023c2.755-1.718,6.184-1.394,4.723-5.734
		C256.277,332.035,254.562,329.688,251.659,330.829z M243.901,340.61c-0.941,1.341-0.896,4.188-0.674,5.734
		c2.628-1.532,7.686-0.634,7.758-4.723C249.498,341.031,245.903,340.398,243.901,340.61z M378.147,377.039
		c-0.015-0.465,0.159-0.74,0.338-1.012c-1.782,0.241-4.644,0.719-4.385,1.687c0.258,0.968,4.945,1.03,4.722,3.71
		c0.903-0.868,3.167-2.131,1.687-3.373c1.193-0.493,1.42-1.953,2.361-2.698C380.419,375.186,379.728,377.295,378.147,377.039z"/>
	<path fill-rule="evenodd" clip-rule="evenodd" stroke="#000000" stroke-miterlimit="10" d="M311.911,147.75
		c-0.247,0.315-0.58,0.542,0,0.675c-0.57,1.331,0.285,3.771,0.338,3.373c0.027,2.899,2.541,8.024,2.698,10.794
		c1.946,0.658,2.042,5.977,3.373,6.408c0.356,1.257-0.71,1.089-1.013,1.688c0.503,0.023-1.497,2.549-1.686,3.035
		c0.252,0.781,1.344,1.57-0.338,1.687c-0.332,2.356,0.989,3.059,1.688,4.385c-1.298,0.052-1.973,0.727-2.024,2.024
		c-1.885,0.086-0.616-2.982-3.036-2.361c0.195-1.096-0.229-1.57-0.337-2.361c-1.087,1.434-1.521,1.662-3.444,2.898
		c-1.293-0.791-1.484-0.407-1.953-0.2c-0.773-1.165-3.059-1.753-2.36-3.373c-1.521,1.341-4.144,0.228-5.397-0.675
		c0.437-1.425,0.127-1.627-0.082-2.793c0.6-0.448,1.232-0.156,0.758-2.266c1.773,0.024,0.289-2.413,1.107-2.662
		c-0.311-1.039-0.232-2.543-0.531-3.781c0.839,0.037,0.916-3.583,1.166-4.25c1.177,0.285,0.377-0.197,0.618-1.113
		c-0.347-1.133-0.261-3.563,0-5.059c0.921-0.246,1.886-2.162,2.698-2.024c-1.069-1.169,0.135-2.175,0-3.373
		c0.914-0.39,2.625-1.134,0.809-2.222c-0.327,0.009-0.32-2.313-0.471-3.176c0.346-0.574,2.139-0.158,3.373-2.697
		c0.3,0.262,0.762,0.362,1.349,0.337c0.042,1.452-0.542,2.619,1.687,2.698C311.251,145.234,311.028,145.44,311.911,147.75z
		 M313.261,178.445c0.176-0.5,0.499-0.851,0.675-1.35c-0.45,0-0.899,0-1.35,0C312.632,177.724,312.808,178.223,313.261,178.445z"/>
	<path fill-rule="evenodd" clip-rule="evenodd" stroke="#000000" stroke-miterlimit="10" d="M285.364,152.471
		c0.556-0.751,0.557,0.398,1.494,1.773c0.313,1.563,0.754,2.591,0.375,2.625c2.698,4.644,1.483,6.72,5.125,10.938
		c-0.896,0.268,0.189,4.709,1.101,5.239c-0.032,1.258-1.316,0.022-1.349,0.675c-0.062,1.293,0.275,0.122,1.012,0.337
		c-0.528,3.376,0.496,5.006,0.674,6.409c-0.104,0.457-0.844,0.279-1.349,0.337c0.027,1.097,0.432,1.817,1.349,2.024
		c-0.545,1.457-2.264,1.709-3.035,4.385c-1.699-0.35-2.354,0.344-2.698,1.35c0.119,0.527,0.594-0.296,0.675,0.336
		c-1.211,2.695-2.539-1.965-3.373-2.36c0.389-4.854-0.882-9.192-1.688-13.492c0.688,0.099,0.662,0.913,1.35,1.012
		c-0.838-1.185-0.688-3.358-0.674-5.396c0.688-0.678,0.66,0.149,1.349,0.337c-1.431-2.301,0.651-6.961-0.675-9.444
		c-1.043-2.122,0.251-0.411,0.675-0.337C285.063,155.776,285.262,156.184,285.364,152.471z"/>
	<path fill-rule="evenodd" clip-rule="evenodd" fill="#231F20" d="M370.7,423.967"/>
</g>
<g id="Layer_8">
	
		<circle id="circle_13_" fill="none" stroke="#BB7E3B" stroke-width="4.5" stroke-miterlimit="10" cx="287.642" cy="280.772" r="173.02"/>
</g>
<g id="Crafted-Army">
	<g id="Shep_x3D__Armychalk_copy">
		<circle id="circle_8_" fill="none" cx="287.438" cy="280.772" r="183.368"/>
		<text transform="matrix(0.7743 -0.6328 0.6328 0.7743 158.6367 149.2129)"><tspan x="0" y="0" font-family="'ArmyChalk'" font-size="54.5812">S</tspan><tspan x="36.75" y="0.337" font-family="'ArmyChalk'" font-size="54.5812" rotate="11.488">H</tspan><tspan x="73.048" y="8.323" font-family="'ArmyChalk'" font-size="54.5812" rotate="22.315">E</tspan><tspan x="102.504" y="20.675" font-family="'ArmyChalk'" font-size="54.5812" rotate="32.69">P</tspan><tspan x="131.147" y="39.309" font-family="'ArmyChalk'" font-size="54.5812" rotate="43.677">H</tspan><tspan x="157.63" y="65.414" font-family="'ArmyChalk'" font-size="54.5812" rotate="54.47">E</tspan><tspan x="176.04" y="91.429" font-family="'ArmyChalk'" font-size="54.5812" rotate="65.181">R</tspan><tspan x="190.965" y="124.511" font-family="'ArmyChalk'" font-size="54.5812" rotate="76.571">D</tspan></text>
		<path id="circle_9_" fill="none" d="M59.751,280.268c-0.28,125.748,101.434,227.91,227.178,228.189
			c125.75,0.283,227.914-101.432,228.193-227.18C515.4,155.531,413.689,53.365,287.941,53.086
			C162.193,52.808,60.03,154.521,59.751,280.268z"/>
		<text transform="matrix(0.8561 0.5167 -0.5167 0.8561 156.3105 467.6152)"><tspan x="0" y="0" font-family="'ArmyChalk'" font-size="55.3099">C</tspan><tspan x="42.244" y="-0.92" font-family="'ArmyChalk'" font-size="55.3099" rotate="-10.827">R</tspan><tspan x="85.166" y="-10.042" font-family="'ArmyChalk'" font-size="55.3099" rotate="-22.411">A</tspan><tspan x="128.338" y="-29.351" font-family="'ArmyChalk'" font-size="55.3099" rotate="-33.071">F</tspan><tspan x="159.76" y="-50.7" font-family="'ArmyChalk'" font-size="55.3099" rotate="-42.892">T</tspan><tspan x="188.688" y="-78.877" font-family="'ArmyChalk'" font-size="55.3099" rotate="-52.891">E</tspan><tspan x="211.511" y="-110.209" font-family="'ArmyChalk'" font-size="55.3099" rotate="-63.305">D</tspan></text>
	</g>
</g>
</svg>
